# xmcd
#
# Track frame offsets:
#	150
#	12694
#	24708
#	42399
#	54092
#	69428
#	85645
#	100504
#	119256
#	134210
#	152179
#	170704
#
# Disc length: 2414 seconds
#
# Revision: 0
# Processed by: cddbd v1.5PL3 Copyright (c) Steve Scherf et al.
# Submitted via: dBpowerAMP V4.0
#
DISCID=9f096c0c
DTITLE=Smokin' Armadillos - Smokin' Armadillos
DYEAR=1900
DGENRE=Country
TTITLE0=Too Hot To Handle
TTITLE1=The Big Bad Beat (Of My Broken Heart)
TTITLE2=Miracle Man
TTITLE3=Thump Factor
TTITLE4=Love Of A Lifetime
TTITLE5=When Will I Ever Learn
TTITLE6=Let Your Heart Lead Your Mind
TTITLE7=The Legend Of Wooley Swamp
TTITLE8=Dance With A Brand New Partner
TTITLE9=Could I Have Made It Back Then
TTITLE10=I'm A Cowboy
TTITLE11=My Girlfriend Might
EXTD=
EXTT0=
EXTT1=
EXTT2=
EXTT3=
EXTT4=
EXTT5=
EXTT6=
EXTT7=
EXTT8=
EXTT9=
EXTT10=
EXTT11=
PLAYORDER=
